<?xml version="1.0" encoding="UTF-8" standalone="no"?>
<!DOCTYPE svg PUBLIC "-//W3C//DTD SVG 1.1//EN" "http://www.w3.org/Graphics/SVG/1.1/DTD/svg11.dtd">
<!-- Created with Vectornator (http://vectornator.io/) -->
<svg height="1024.0pt" stroke-miterlimit="10" style="fill-rule:nonzero;clip-rule:evenodd;stroke-linecap:round;stroke-linejoin:round;" version="1.1" viewBox="0 0 1024 1024" width="1024.0pt" xml:space="preserve" xmlns="http://www.w3.org/2000/svg" xmlns:xlink="http://www.w3.org/1999/xlink">
<defs/>
<g id="Layer-1">
<path d="M648.463 382.152L710.825 365.602L693.294 437.531L648.463 448.2L648.463 382.152Z" fill="#2f6b3a" fill-rule="nonzero" opacity="1" stroke="#2f6b3a" stroke-linecap="butt" stroke-linejoin="round" stroke-width="8.98893"/>
<path d="M909.197 396.855L965.121 419.75L941.344 482.939L890.242 462.686L909.197 396.855Z" fill="#2f6b3a" fill-rule="nonzero" opacity="1" stroke="#2f6b3a" stroke-linecap="butt" stroke-linejoin="round" stroke-width="8.98893"/>
<path d="M944.038 271.779L997.043 296.139L981.229 354.737L923.817 332.478L944.038 271.779Z" fill="#2f6b3a" fill-rule="nonzero" opacity="1" stroke="#2f6b3a" stroke-linecap="butt" stroke-linejoin="round" stroke-width="8.98893"/>
<path d="M867.987 316.342L921.232 332.834L908.039 396.855L851.141 377.126L867.987 316.342Z" fill="#2f6b3a" fill-rule="nonzero" opacity="1" stroke="#2f6b3a" stroke-linecap="butt" stroke-linejoin="round" stroke-width="8.98893"/>
<path d="M820.529 236.819L874.358 250.24L866.225 312.781L796.792 296.851L820.529 236.819Z" fill="#2f6b3a" fill-rule="nonzero" opacity="1" stroke="#2f6b3a" stroke-linecap="butt" stroke-linejoin="round" stroke-width="8.98893"/>
<path d="M160.985 579.441C155.393 582.237 160.376 630.042 160.985 636.342C161.705 643.776 173.809 655.901 188.561 659.329" fill="none" opacity="1" stroke="#2f6b3a" stroke-linecap="round" stroke-linejoin="round" stroke-width="8.98893"/>
<path d="M169.409 552.136C158.254 535.402 204.138 424.328 222.315 419.784" fill="none" opacity="1" stroke="#2f6b3a" stroke-linecap="round" stroke-linejoin="round" stroke-width="8.98893"/>
<path d="M222.315 419.784C241.109 418.77 265.356 440.576 295.326 447.228C325.102 453.837 361.606 454.821 394.766 452.988C418.653 451.667 440.802 453.587 455.751 440.576" fill="none" opacity="1" stroke="#2f6b3a" stroke-linecap="round" stroke-linejoin="round" stroke-width="8.98893"/>
<path d="M169.467 552.136C186.092 567.881 216.882 566.014 248.343 561.971C330.838 551.37 437.927 491.727 455.751 440.576" fill="none" opacity="1" stroke="#2f6b3a" stroke-linecap="round" stroke-linejoin="round" stroke-width="8.98893"/>
<path d="M249.49 382.152C261.625 385.311 276.479 399.552 293.942 405.092C328.019 415.902 379.868 410.199 416.533 408.841C436.739 408.092 456.98 407.205 477.055 405.092C484.168 404.343 501.844 402.693 504.92 400.624" fill="none" opacity="1" stroke="#2f6b3a" stroke-linecap="round" stroke-linejoin="round" stroke-width="8.98893"/>
<path d="M506.335 401.77C520.421 427.69 498.196 466.97 485.498 488.514" fill="none" opacity="1" stroke="#2f6b3a" stroke-linecap="round" stroke-linejoin="round" stroke-width="8.98893"/>
<path d="M484.646 489.685C488.917 483.879 476 501.29 470.876 506.282C460.21 516.672 449.471 530.574 436.144 537.329C422.991 543.996 395.466 559.286 370.885 568.487C361.309 572.072 329.757 585.029 329.757 585.029C329.757 585.029 329.942 584.71 329.078 585.029" fill="none" opacity="1" stroke="#2f6b3a" stroke-linecap="round" stroke-linejoin="round" stroke-width="8.98893"/>
<path d="M162.271 578.81C165.212 588.035 178.448 590.704 190.413 593.665C231.278 603.778 306.227 587.089 329.078 585.029" fill="none" opacity="1" stroke="#2f6b3a" stroke-linecap="round" stroke-linejoin="round" stroke-width="8.98893"/>
<path d="M325.173 633.164C331.453 631.423 330.049 631.426 336.209 629.941C342.12 628.517 392.543 606.666 397.001 605.154C416.152 598.664 569.841 511.211 587.347 501.396" fill="none" opacity="1" stroke="#2f6b3a" stroke-linecap="round" stroke-linejoin="round" stroke-width="8.98893"/>
<path d="M246.7 380.481C241.723 376.366 277.286 339.75 281.726 335.207C345.142 270.32 436.589 242.054 523.083 275.506C619.612 312.84 602.482 421.044 588.671 500.716" fill="none" opacity="1" stroke="#2f6b3a" stroke-linecap="round" stroke-linejoin="round" stroke-width="8.98893"/>
<path d="M636.87 256.355L728.522 230.55L721.06 290.825L636.87 306.509L636.87 256.355Z" fill="#2f6b3a" fill-rule="nonzero" opacity="1" stroke="#2f6b3a" stroke-linecap="butt" stroke-linejoin="round" stroke-width="8.98893"/>
<path d="M724.233 294.363L793.779 299.835L786.533 365.602L710.825 363.358L724.233 294.363Z" fill="#2f6b3a" fill-rule="nonzero" opacity="1" stroke="#2f6b3a" stroke-linecap="butt" stroke-linejoin="round" stroke-width="8.98893"/>
<path d="M787.526 368.312L847.499 381.039L828.131 448.2L769.95 438.275L787.526 368.312Z" fill="#2f6b3a" fill-rule="nonzero" opacity="1" stroke="#2f6b3a" stroke-linecap="butt" stroke-linejoin="round" stroke-width="8.98893"/>
<path d="M937.555 591.436C923.737 587.757 908.301 575.365 890.242 568.434C873.442 561.986 854.232 560.92 835.575 559.045C786.808 554.144 737.588 567.735 733.22 568.434C695.922 574.403 655.84 584.091 620.847 598.316C573.447 617.583 528.19 635.065 483.168 660.106C452.569 677.125 416.704 696.116 385.723 711.958C338.672 736.016 296.09 752.158 244.455 767.99C227.213 773.276 208.589 776.322 190.134 777.206C163.758 778.471 114.329 775.321 93.1688 767.99C56.9267 755.433 42.6543 735.232 34.2454 711.921C26.0035 689.073 23.1545 663.237 34.2454 638.679C41.3657 622.914 67.1755 598.559 79.3732 585.029C80.7619 583.489 81.9638 582.099 82.9984 580.848" fill="none" opacity="1" stroke="#2f6b3a" stroke-linecap="round" stroke-linejoin="round" stroke-width="8.98893"/>
<path d="M76.6855 589.972C78.8518 594.464 74.6079 638.03 76.6855 642.493C80.4718 650.627 90.2393 666.695 97.5103 671.015C118.692 683.599 147.074 689.404 158.359 689.875C203.011 691.739 262.911 688.976 312.609 671.015C335.536 662.728 358.708 654.086 381.996 644.803C417.473 630.66 453.218 615.027 488.778 596.893C529.281 576.238 578.012 561.271 617.36 543.858C680.966 515.709 742.96 509.813 796.792 512.914C848.64 515.901 892.701 526.155 934.388 588.24" fill="none" opacity="1" stroke="#2f6b3a" stroke-linecap="round" stroke-linejoin="round" stroke-width="8.98893"/>
<path d="M290.297 791.238C271.088 800.505 330.925 777.914 351.838 773.731C394.451 765.208 434.677 738.056 473.859 719.617C539.621 688.67 697.481 591.898 808.725 601.271C838.444 603.775 874.545 600.617 896.852 619.773C902.535 624.654 911.156 631.189 914.047 639.392C916.62 646.692 912.452 658.959 914.047 667.73C915.44 675.39 921.558 714.668 914.047 719.617C901.333 727.995 882.108 715.747 847.046 714.923C809.032 714.03 753.859 724.432 707.397 731.684C617.89 745.653 515.617 779.277 438.21 783.607C380.324 786.846 310.194 781.64 290.297 791.238Z" fill="none" opacity="1" stroke="#2f6b3a" stroke-linecap="round" stroke-linejoin="round" stroke-width="8.98893"/>
<path d="M602.133 667.73L821.926 619.773L903.746 633.164L910.925 651.425L908.56 683.886L910.925 711.334C910.925 711.334 903.746 724.921 893.177 717.215C882.609 709.51 877.604 711.334 877.604 711.334L874.358 690.373L482.256 777.479L602.133 667.73Z" fill="#2f6b3a" fill-rule="nonzero" opacity="1" stroke="#2f6b3a" stroke-linecap="butt" stroke-linejoin="round" stroke-width="8.98893"/>
<path d="M775.776 689.084L879.841 689.084L879.841 711.049L775.776 711.049L775.776 689.084Z" fill="#2f6b3a" fill-rule="nonzero" opacity="1" stroke="#2f6b3a" stroke-linecap="butt" stroke-linejoin="round" stroke-width="8.98893"/>
<path d="M621.554 647.569L752.302 609.326L847.499 609.326L896.205 619.773L896.205 660.106L847.499 674.627L481.641 777.479L344.76 777.479L377.205 770.224L468.583 727.662L621.554 647.569Z" fill="#2f6b3a" fill-rule="nonzero" opacity="1" stroke="#2f6b3a" stroke-linecap="butt" stroke-linejoin="round" stroke-width="8.98893"/>
<path d="M76.095 596.893C76.095 596.893 69.2487 617.361 69.2487 633.164C69.2487 648.968 82.6436 660.106 82.6436 660.106L118.588 689.084L201.381 698.626L277.042 685.692L339.033 667.73L377.205 650.934L457.451 619.28L562.955 567.28L655.083 533.934L708.357 522.832L770.306 516.575L827.808 518.881L874.358 536.772L896.205 552.136L925.387 582.262L886.187 557.982L793.779 552.136L710.825 564.793L620.482 595.895L602.133 596.893L599.44 601.271L393.329 705.383L222.315 771.52L106.564 771.52C106.564 771.52 87.4913 766.531 70.0314 751.413C52.5716 736.296 36.7249 711.049 36.7249 711.049C36.7249 711.049 26.9567 675.918 26.9567 664.108C26.9567 652.299 36.7249 641.845 36.7249 641.845L76.095 596.893Z" fill="#2f6b3a" fill-rule="nonzero" opacity="1" stroke="#2f6b3a" stroke-linecap="butt" stroke-linejoin="round" stroke-width="8.98893"/>
<path d="M222.315 419.784L261.288 441.279L339.033 461.816L396.907 461.816L443.301 453.804L410.948 485.96L360.647 523.975L261.288 557.982L210.098 560.379L169.467 550.245L186.718 484.39L222.315 419.784Z" fill="#2f6b3a" fill-rule="nonzero" opacity="1" stroke="#2f6b3a" stroke-linecap="butt" stroke-linejoin="round" stroke-width="8.98893"/>
<path d="M167.684 587.852L194.999 601.271L241.766 601.271L330.973 592.213L455.751 533.504L504.92 465.55L510.851 401.77L594.176 402.632L587.609 499.981L422.832 592.213L277.188 644.047L194.999 660.106L167.684 644.047L158.359 601.271L167.684 587.852Z" fill="#2f6b3a" fill-rule="nonzero" opacity="1" stroke="#2f6b3a" stroke-linecap="butt" stroke-linejoin="round" stroke-width="8.98893"/>
<path d="M312.609 312.781L392.821 271.779L456.26 268.53L517.166 274.8L562.939 306.509L586.491 345.637L599.44 396.855L426.373 401.77L373.289 405.145L359.037 408.256L306.384 405.145L262.312 383.057L253.306 375.329L277.136 345.637L312.609 312.781Z" fill="#2f6b3a" fill-rule="nonzero" opacity="1" stroke="#2f6b3a" stroke-linecap="butt" stroke-linejoin="round" stroke-width="8.98893"/>
</g>
</svg>
