<?xml version="1.0" encoding="UTF-8" standalone="no"?>
<!DOCTYPE svg PUBLIC "-//W3C//DTD SVG 1.1//EN" "http://www.w3.org/Graphics/SVG/1.1/DTD/svg11.dtd">
<!-- Created with Vectornator (http://vectornator.io/) -->
<svg height="800.0px" stroke-miterlimit="10" style="fill-rule:nonzero;clip-rule:evenodd;stroke-linecap:round;stroke-linejoin:round;" version="1.1" viewBox="0 0 2000 800" width="2000.0px" xml:space="preserve" xmlns="http://www.w3.org/2000/svg" xmlns:xlink="http://www.w3.org/1999/xlink">
<defs/>
<g id="Ebene-1">
<path d="M667.013 333.479L701.701 324.273L691.95 364.282L667.013 370.217L667.013 333.479Z" fill="#2f6b3a" fill-rule="nonzero" opacity="1" stroke="#2f6b3a" stroke-linecap="butt" stroke-linejoin="round" stroke-width="5"/>
<path d="M812.043 341.657L843.15 354.392L829.925 389.541L801.5 378.275L812.043 341.657Z" fill="#2f6b3a" fill-rule="nonzero" opacity="1" stroke="#2f6b3a" stroke-linecap="butt" stroke-linejoin="round" stroke-width="5"/>
<path d="M831.424 272.085L860.907 285.635L852.11 318.229L820.176 305.848L831.424 272.085Z" fill="#2f6b3a" fill-rule="nonzero" opacity="1" stroke="#2f6b3a" stroke-linecap="butt" stroke-linejoin="round" stroke-width="5"/>
<path d="M789.121 296.872L818.738 306.046L811.399 341.657L779.751 330.683L789.121 296.872Z" fill="#2f6b3a" fill-rule="nonzero" opacity="1" stroke="#2f6b3a" stroke-linecap="butt" stroke-linejoin="round" stroke-width="5"/>
<path d="M762.723 252.639L792.665 260.104L788.141 294.892L749.52 286.031L762.723 252.639Z" fill="#2f6b3a" fill-rule="nonzero" opacity="1" stroke="#2f6b3a" stroke-linecap="butt" stroke-linejoin="round" stroke-width="5"/>
<path d="M395.858 443.218C392.748 444.774 395.519 471.365 395.858 474.869C396.258 479.004 402.992 485.749 411.197 487.656" fill="none" opacity="1" stroke="#2f6b3a" stroke-linecap="round" stroke-linejoin="round" stroke-width="5"/>
<path d="M400.544 428.03C394.339 418.723 419.861 356.939 429.972 354.411" fill="none" opacity="1" stroke="#2f6b3a" stroke-linecap="round" stroke-linejoin="round" stroke-width="5"/>
<path d="M429.972 354.411C440.426 353.847 453.914 365.977 470.584 369.677C487.146 373.353 507.452 373.9 525.897 372.88C539.184 372.146 551.504 373.214 559.819 365.977" fill="none" opacity="1" stroke="#2f6b3a" stroke-linecap="round" stroke-linejoin="round" stroke-width="5"/>
<path d="M400.576 428.03C409.824 436.789 426.95 435.75 444.45 433.501C490.337 427.604 549.905 394.428 559.819 365.977" fill="none" opacity="1" stroke="#2f6b3a" stroke-linecap="round" stroke-linejoin="round" stroke-width="5"/>
<path d="M445.088 333.479C451.838 335.236 460.101 343.157 469.814 346.238C488.769 352.252 517.61 349.079 538.004 348.324C549.244 347.908 560.502 347.414 571.669 346.238C575.626 345.822 585.458 344.904 587.168 343.753" fill="none" opacity="1" stroke="#2f6b3a" stroke-linecap="round" stroke-linejoin="round" stroke-width="5"/>
<path d="M587.956 344.391C595.791 358.809 583.429 380.658 576.365 392.641" fill="none" opacity="1" stroke="#2f6b3a" stroke-linecap="round" stroke-linejoin="round" stroke-width="5"/>
<path d="M575.891 393.293C578.267 390.063 571.082 399.748 568.232 402.525C562.299 408.304 556.325 416.037 548.913 419.794C541.596 423.502 526.286 432.008 512.613 437.126C507.286 439.12 489.736 446.327 489.736 446.327C489.736 446.327 489.839 446.15 489.358 446.327" fill="none" opacity="1" stroke="#2f6b3a" stroke-linecap="round" stroke-linejoin="round" stroke-width="5"/>
<path d="M396.574 442.868C398.209 447.999 405.572 449.483 412.227 451.13C434.958 456.756 476.648 447.473 489.358 446.327" fill="none" opacity="1" stroke="#2f6b3a" stroke-linecap="round" stroke-linejoin="round" stroke-width="5"/>
<path d="M487.186 473.102C490.68 472.133 489.899 472.135 493.325 471.309C496.613 470.517 524.66 458.362 527.14 457.521C537.792 453.911 623.28 405.266 633.018 399.807" fill="none" opacity="1" stroke="#2f6b3a" stroke-linecap="round" stroke-linejoin="round" stroke-width="5"/>
<path d="M443.536 332.549C440.768 330.26 460.55 309.893 463.019 307.366C498.294 271.273 549.16 255.551 597.271 274.158C650.965 294.924 641.436 355.112 633.754 399.429" fill="none" opacity="1" stroke="#2f6b3a" stroke-linecap="round" stroke-linejoin="round" stroke-width="5"/>
<path d="M660.564 263.505L711.545 249.152L707.394 282.679L660.564 291.403L660.564 263.505Z" fill="#2f6b3a" fill-rule="nonzero" opacity="1" stroke="#2f6b3a" stroke-linecap="butt" stroke-linejoin="round" stroke-width="5"/>
<path d="M709.159 284.647L747.843 287.691L743.813 324.273L701.701 323.024L709.159 284.647Z" fill="#2f6b3a" fill-rule="nonzero" opacity="1" stroke="#2f6b3a" stroke-linecap="butt" stroke-linejoin="round" stroke-width="5"/>
<path d="M744.365 325.78L777.725 332.859L766.952 370.217L734.589 364.697L744.365 325.78Z" fill="#2f6b3a" fill-rule="nonzero" opacity="1" stroke="#2f6b3a" stroke-linecap="butt" stroke-linejoin="round" stroke-width="5"/>
<path d="M827.817 449.891C820.132 447.845 811.545 440.952 801.5 437.096C792.155 433.509 781.47 432.917 771.092 431.874C743.966 429.147 716.588 436.707 714.158 437.096C693.411 440.416 671.116 445.805 651.652 453.717C625.286 464.435 600.112 474.159 575.069 488.088C558.049 497.554 538.099 508.118 520.866 516.93C494.695 530.312 471.009 539.291 442.287 548.097C432.697 551.037 422.338 552.732 412.072 553.224C397.401 553.927 369.906 552.175 358.136 548.097C337.977 541.112 330.038 529.876 325.361 516.909C320.776 504.2 319.191 489.829 325.361 476.169C329.321 467.4 343.678 453.853 350.462 446.327C351.235 445.47 351.903 444.697 352.479 444.001" fill="none" opacity="1" stroke="#2f6b3a" stroke-linecap="round" stroke-linejoin="round" stroke-width="5"/>
<path d="M348.967 449.077C350.172 451.575 347.812 475.808 348.967 478.291C351.074 482.815 356.507 491.753 360.551 494.156C372.333 501.155 388.12 504.385 394.397 504.647C419.235 505.684 452.553 504.147 480.198 494.156C492.951 489.546 505.84 484.739 518.793 479.575C538.527 471.709 558.41 463.013 578.19 452.926C600.719 441.437 627.825 433.112 649.712 423.426C685.092 407.768 719.576 404.489 749.52 406.214C778.359 407.875 802.868 413.579 826.056 448.113" fill="none" opacity="1" stroke="#2f6b3a" stroke-linecap="round" stroke-linejoin="round" stroke-width="5"/>
<path d="M467.787 561.029C457.102 566.183 490.385 553.617 502.018 551.29C525.721 546.55 548.096 531.447 569.891 521.19C606.471 503.976 694.279 450.148 756.157 455.362C772.688 456.754 792.769 454.998 805.177 465.653C808.338 468.368 813.133 472.003 814.741 476.566C816.172 480.626 813.854 487.45 814.741 492.329C815.516 496.59 818.919 518.437 814.741 521.19C807.669 525.85 796.976 519.038 777.472 518.579C756.328 518.083 725.638 523.869 699.795 527.902C650.007 535.672 593.119 554.375 550.062 556.784C517.863 558.585 478.854 555.69 467.787 561.029Z" fill="none" opacity="1" stroke="#2f6b3a" stroke-linecap="round" stroke-linejoin="round" stroke-width="5"/>
<text fill="#2f6b3a" font-family="Kailasa-Bold" font-size="240.267" opacity="1" stroke="none" text-anchor="start" transform="matrix(1 0 0 1 879.458 283.873)" x="0" y="0">
<tspan font-family="Helvetica-Bold" textLength="814.654" x="0" y="185.01"><![CDATA[Kartixa]]></tspan>
</text>
<path d="M641.242 492.329L763.5 465.653L809.011 473.102L813.005 483.259L811.689 501.315L813.005 516.583C813.005 516.583 809.011 524.14 803.133 519.854C797.254 515.568 794.47 516.583 794.47 516.583L792.665 504.923L574.562 553.375L641.242 492.329Z" fill="#2f6b3a" fill-rule="nonzero" opacity="1" stroke="#2f6b3a" stroke-linecap="butt" stroke-linejoin="round" stroke-width="5"/>
<path d="M737.829 504.206L795.714 504.206L795.714 516.425L737.829 516.425L737.829 504.206Z" fill="#2f6b3a" fill-rule="nonzero" opacity="1" stroke="#2f6b3a" stroke-linecap="butt" stroke-linejoin="round" stroke-width="5"/>
<path d="M652.045 481.114L724.772 459.842L777.725 459.842L804.817 465.653L804.817 488.088L777.725 496.165L574.22 553.375L498.081 553.375L516.128 549.34L566.957 525.665L652.045 481.114Z" fill="#2f6b3a" fill-rule="nonzero" opacity="1" stroke="#2f6b3a" stroke-linecap="butt" stroke-linejoin="round" stroke-width="5"/>
<path d="M348.639 452.926C348.639 452.926 344.831 464.311 344.831 473.102C344.831 481.892 352.282 488.088 352.282 488.088L372.275 504.206L418.328 509.514L460.414 502.319L494.896 492.329L516.128 482.986L560.765 465.379L619.45 436.454L670.695 417.906L700.328 411.73L734.787 408.25L766.772 409.533L792.665 419.484L804.817 428.03L821.049 444.788L799.244 431.282L747.843 428.03L701.701 435.071L651.449 452.371L641.242 452.926L639.744 455.362L525.097 513.273L429.972 550.06L365.587 550.06C365.587 550.06 354.978 547.285 345.266 538.876C335.554 530.467 326.74 516.425 326.74 516.425C326.74 516.425 321.306 496.883 321.306 490.314C321.306 483.745 326.74 477.93 326.74 477.93L348.639 452.926Z" fill="#2f6b3a" fill-rule="nonzero" opacity="1" stroke="#2f6b3a" stroke-linecap="butt" stroke-linejoin="round" stroke-width="5"/>
<path d="M429.972 354.411L451.651 366.367L494.896 377.791L527.088 377.791L552.894 373.334L534.898 391.221L506.918 412.366L451.651 431.282L423.177 432.616L400.576 426.978L410.172 390.347L429.972 354.411Z" fill="#2f6b3a" fill-rule="nonzero" opacity="1" stroke="#2f6b3a" stroke-linecap="butt" stroke-linejoin="round" stroke-width="5"/>
<path d="M399.584 447.897L414.778 455.362L440.792 455.362L490.412 450.323L559.819 417.666L587.168 379.868L590.467 344.391L636.816 344.87L633.163 399.02L541.508 450.323L460.495 479.155L414.778 488.088L399.584 479.155L394.397 455.362L399.584 447.897Z" fill="#2f6b3a" fill-rule="nonzero" opacity="1" stroke="#2f6b3a" stroke-linecap="butt" stroke-linejoin="round" stroke-width="5"/>
<path d="M480.198 294.892L524.815 272.085L560.102 270.277L593.98 273.765L619.441 291.403L632.542 313.168L639.744 341.657L543.478 344.391L513.95 346.268L506.023 347.999L476.735 346.268L452.22 333.982L447.211 329.683L460.466 313.168L480.198 294.892Z" fill="#2f6b3a" fill-rule="nonzero" opacity="1" stroke="#2f6b3a" stroke-linecap="butt" stroke-linejoin="round" stroke-width="5"/>
</g>
</svg>
